<svg width="39" height="16" viewBox="0 0 39 16" fill="none" xmlns="http://www.w3.org/2000/svg">
<path d="M12.7901 9.54675C12.6174 9.71408 12.5381 9.95608 12.5774 10.1934L13.1701 13.4734C13.2201 13.7514 13.1027 14.0327 12.8701 14.1934C12.6421 14.3601 12.3387 14.3801 12.0901 14.2467L9.13741 12.7067C9.03474 12.6521 8.92074 12.6227 8.80407 12.6194H8.62341C8.56074 12.6287 8.49941 12.6487 8.44341 12.6794L5.49007 14.2267C5.34407 14.3001 5.17874 14.3261 5.01674 14.3001C4.62207 14.2254 4.35874 13.8494 4.42341 13.4527L5.01674 10.1727C5.05607 9.93341 4.97674 9.69008 4.80407 9.52008L2.39674 7.18675C2.19541 6.99141 2.12541 6.69808 2.21741 6.43341C2.30674 6.16941 2.53474 5.97675 2.81007 5.93341L6.12341 5.45275C6.37541 5.42675 6.59674 5.27341 6.71007 5.04675L8.17007 2.05341C8.20474 1.98675 8.24941 1.92541 8.30341 1.87341L8.36341 1.82675C8.39474 1.79208 8.43074 1.76341 8.47074 1.74008L8.54341 1.71341L8.65674 1.66675H8.93741C9.18807 1.69275 9.40874 1.84275 9.52407 2.06675L11.0034 5.04675C11.1101 5.26475 11.3174 5.41608 11.5567 5.45275L14.8701 5.93341C15.1501 5.97341 15.3841 6.16675 15.4767 6.43341C15.5641 6.70075 15.4887 6.99408 15.2834 7.18675L12.7901 9.54675Z" fill="#FDC040"/>
<path d="M21.5007 11.2955V10.2301L25.272 4.27273H26.1115V5.84091H25.5788L22.8814 10.1108V10.179H28.0504V11.2955H21.5007ZM25.6385 13V10.9716L25.647 10.4858V4.27273H26.8956V13H25.6385ZM30.0639 13.081C29.8309 13.081 29.6306 12.9986 29.463 12.8338C29.2954 12.6662 29.2116 12.4645 29.2116 12.2287C29.2116 11.9957 29.2954 11.7969 29.463 11.6321C29.6306 11.4645 29.8309 11.3807 30.0639 11.3807C30.2968 11.3807 30.4971 11.4645 30.6647 11.6321C30.8323 11.7969 30.9162 11.9957 30.9162 12.2287C30.9162 12.3849 30.8764 12.5284 30.7968 12.6591C30.7201 12.7869 30.6179 12.8892 30.49 12.9659C30.3622 13.0426 30.2201 13.081 30.0639 13.081ZM35.3458 13.1193C34.8118 13.1193 34.3316 13.017 33.9055 12.8125C33.4822 12.6051 33.1441 12.321 32.8913 11.9602C32.6385 11.5994 32.5035 11.1875 32.4865 10.7244H33.7649C33.7961 11.0994 33.9623 11.4077 34.2635 11.6491C34.5646 11.8906 34.9254 12.0114 35.3458 12.0114C35.6811 12.0114 35.9779 11.9347 36.2365 11.7812C36.4978 11.625 36.7024 11.4105 36.8501 11.1378C37.0007 10.8651 37.076 10.554 37.076 10.2045C37.076 9.84943 36.9993 9.53267 36.8458 9.25426C36.6924 8.97585 36.4808 8.7571 36.2109 8.59801C35.9439 8.43892 35.637 8.35795 35.2904 8.35511C35.0262 8.35511 34.7606 8.40057 34.4936 8.49148C34.2265 8.58239 34.0106 8.7017 33.8458 8.84943L32.6399 8.67045L33.1299 4.27273H37.9282V5.40199H34.2251L33.9481 7.84375H33.9993C34.1697 7.67898 34.3956 7.54119 34.6768 7.4304C34.9609 7.3196 35.2649 7.2642 35.5887 7.2642C36.12 7.2642 36.593 7.39062 37.0078 7.64347C37.4254 7.89631 37.7535 8.24148 37.9921 8.67898C38.2336 9.11364 38.3529 9.61364 38.3501 10.179C38.3529 10.7443 38.2251 11.2486 37.9666 11.6918C37.7109 12.1349 37.3558 12.4844 36.9012 12.7401C36.4495 12.9929 35.9311 13.1193 35.3458 13.1193Z" fill="#ADADAD"/>
</svg>
